<svg width="53" height="49" viewBox="0 0 53 49" fill="none" xmlns="http://www.w3.org/2000/svg">
<path d="M52.7184 21.0202L43.5529 8.59901C43.5529 8.59901 43.5017 8.53731 43.4931 8.52642L43.459 8.49012L43.4078 8.44656L43.3652 8.41389L43.314 8.37759L43.25 8.34129L43.2202 8.32677C43.1903 8.31225 43.1562 8.29773 43.1477 8.2941L43.1221 8.28322C43.1221 8.28322 43.0581 8.26144 43.0368 8.25418L42.9728 8.23966L42.9387 8.2324C42.9088 8.22877 42.8832 8.22152 42.8534 8.22152L42.7638 8.21425H22.8291C21.814 8.56634 21.2425 9.02732 20.816 9.85855H24.7867L18.2826 19.7716L11.7784 9.85855H15.7492C15.3227 9.02732 14.7512 8.56634 13.7361 8.21425H10.0426L9.96579 8.22514L9.87623 8.23966L9.85064 8.24692C9.70137 8.28684 9.56488 8.35582 9.4412 8.46108C9.41987 8.47923 9.39429 8.50101 9.35164 8.55183L9.33031 8.57723L0.147716 21.0202C-0.0740649 21.3215 -0.0442129 21.7099 0.224484 21.9857L25.6952 48.055L25.708 48.0695L25.7379 48.0949C25.772 48.1276 25.8104 48.1566 25.8359 48.1711L25.8829 48.2002L25.917 48.2292L26.0748 48.2873C26.1089 48.2982 26.143 48.3091 26.1516 48.3091L26.1772 48.3163L26.2454 48.3309C26.3094 48.3417 26.3691 48.349 26.433 48.349C26.497 48.349 26.561 48.3418 26.5823 48.3381L26.6292 48.3309L26.6847 48.32C26.7316 48.3091 26.7743 48.2946 26.8041 48.2837L26.9918 48.2183L27.0344 48.1675C27.0685 48.1421 27.1027 48.1167 27.1368 48.084L52.6459 21.9785C52.9146 21.7026 52.9444 21.3178 52.7227 21.0129L52.7184 21.0202ZM41.0834 9.85855L34.5792 19.7716L28.0751 9.85855H41.0834ZM2.14801 21.3904L10.0767 10.6499L17.3741 21.7716L24.3645 44.1312L2.14801 21.3904ZM26.4288 44.3308L19.3105 21.5683L26.4288 10.7224L33.5471 21.5683L26.4288 44.3308ZM28.4931 44.1312L35.4834 21.7716L42.7809 10.6499L50.7096 21.3904L28.4931 44.1312Z" fill="#CE9461"/>
<path d="M18.2783 12.1962C19.3957 7.81861 20.2999 7.04909 25.4435 6.09808C20.2999 5.14707 19.3957 4.37755 18.2783 0C17.1608 4.37755 16.2567 5.14707 11.113 6.09808C16.2567 7.04909 17.1608 7.81861 18.2783 12.1962Z" fill="#CE9461"/>
</svg>
